<svg width="307" height="86" viewBox="0 0 307 86" fill="none" xmlns="http://www.w3.org/2000/svg">
<path d="M0 43.25L0.7675 42.6111L1.535 41.9723L2.3025 41.3338L3.07 40.6958L3.8375 40.0585L4.605 39.4219L5.3725 38.7863L6.14 38.1518L6.9075 37.5185L7.675 36.8866L8.4425 36.2563L9.21 35.6278L9.9775 35.0011L10.745 34.3765L11.5125 33.754L12.28 33.1339L13.0475 32.5163L13.815 31.9013L14.5825 31.2892L15.35 30.68L16.1175 30.0738L16.885 29.471L17.6525 28.8715L18.42 28.2756L19.1875 27.6834L19.955 27.095L20.7225 26.5106L21.49 25.9304L22.2575 25.3544L23.025 24.7828L23.7925 24.2158L24.56 23.6535L25.3275 23.096L26.095 22.5435L26.8625 21.9961L27.63 21.4539L28.3975 20.9171L29.165 20.3858L29.9325 19.8602L30.7 19.3404L31.4675 18.8264L32.235 18.3185L33.0025 17.8167L33.77 17.3212L34.5375 16.8321L35.305 16.3495L36.0725 15.8735L36.84 15.4043L37.6075 14.942L38.375 14.4867L39.1425 14.0384L39.91 13.5974L40.6775 13.1637L41.445 12.7374L42.2125 12.3186L42.98 11.9074L43.7475 11.504L44.515 11.1085L45.2825 10.7208L46.05 10.3412L46.8175 9.96971L47.585 9.60643L48.3525 9.25144L49.12 8.90485L49.8875 8.56672L50.655 8.23716L51.4225 7.91624L52.19 7.60403L52.9575 7.30062L53.725 7.00608L54.4925 6.72048L55.26 6.44389L56.0275 6.17639L56.795 5.91803L57.5625 5.66889L58.33 5.42901L59.0975 5.19847L59.865 4.97732L60.6325 4.76561L61.4 4.56339L62.1675 4.37073L62.935 4.18765L63.7025 4.01421L64.47 3.85045L65.2375 3.69642L66.005 3.55214L66.7725 3.41766L67.54 3.293L68.3075 3.17821L69.075 3.0733L69.8425 2.97831L70.61 2.89325L71.3775 2.81815L72.145 2.75302L72.9125 2.69789L73.68 2.65276L74.4475 2.61765L75.215 2.59257L75.9825 2.57751L76.75 2.57249L77.5175 2.57751L78.285 2.59257L79.0525 2.61765L79.82 2.65276L80.5875 2.69789L81.355 2.75302L82.1225 2.81815L82.89 2.89325L83.6575 2.97831L84.425 3.0733L85.1925 3.17821L85.96 3.293L86.7275 3.41766L87.495 3.55214L88.2625 3.69642L89.03 3.85045L89.7975 4.01421L90.565 4.18765L91.3325 4.37073L92.1 4.56339L92.8675 4.76561L93.635 4.97732L94.4025 5.19847L95.17 5.42901L95.9375 5.66889L96.705 5.91803L97.4725 6.17639L98.24 6.44389L99.0075 6.72048L99.775 7.00608L100.543 7.30062L101.31 7.60403L102.078 7.91624L102.845 8.23716L103.613 8.56672L104.38 8.90485L105.148 9.25144L105.915 9.60643L106.683 9.96971L107.45 10.3412L108.218 10.7208L108.985 11.1085L109.753 11.504L110.52 11.9074L111.288 12.3186L112.055 12.7374L112.823 13.1637L113.59 13.5974L114.358 14.0384L115.125 14.4867L115.893 14.942L116.66 15.4043L117.428 15.8735L118.195 16.3495L118.963 16.8321L119.73 17.3212L120.498 17.8167L121.265 18.3185L122.033 18.8264L122.8 19.3404L123.568 19.8602L124.335 20.3858L125.103 20.9171L125.87 21.4539L126.638 21.9961L127.405 22.5435L128.173 23.096L128.94 23.6535L129.708 24.2158L130.475 24.7828L131.243 25.3544L132.01 25.9304L132.778 26.5106L133.545 27.095L134.313 27.6834L135.08 28.2756L135.848 28.8715L136.615 29.471L137.383 30.0738L138.15 30.68L138.918 31.2892L139.685 31.9013L140.453 32.5163L141.22 33.1339L141.988 33.754L142.755 34.3765L143.523 35.0011L144.29 35.6278L145.058 36.2563L145.825 36.8866L146.593 37.5185L147.36 38.1518L148.128 38.7863L148.895 39.4219L149.663 40.0585L150.43 40.6958L151.198 41.3338L151.965 41.9723L152.733 42.6111L153.5 43.25L154.268 43.8889L155.035 44.5277L155.803 45.1662L156.57 45.8042L157.338 46.4415L158.105 47.0781L158.873 47.7137L159.64 48.3482L160.408 48.9815L161.175 49.6134L161.943 50.2436L162.71 50.8722L163.478 51.4989L164.245 52.1235L165.013 52.746L165.78 53.3661L166.548 53.9837L167.315 54.5987L168.083 55.2108L168.85 55.82L169.618 56.4262L170.385 57.029L171.153 57.6285L171.92 58.2244L172.688 58.8166L173.455 59.405L174.223 59.9894L174.99 60.5696L175.758 61.1456L176.525 61.7172L177.293 62.2842L178.06 62.8465L178.828 63.404L179.595 63.9565L180.363 64.5039L181.13 65.0461L181.898 65.5829L182.665 66.1141L183.433 66.6398L184.2 67.1596L184.968 67.6736L185.735 68.1815L186.503 68.6833L187.27 69.1788L188.038 69.6679L188.805 70.1505L189.573 70.6265L190.34 71.0957L191.108 71.558L191.875 72.0133L192.643 72.4616L193.41 72.9026L194.178 73.3363L194.945 73.7626L195.713 74.1814L196.48 74.5926L197.248 74.996L198.015 75.3915L198.783 75.7792L199.55 76.1588L200.318 76.5303L201.085 76.8936L201.853 77.2486L202.62 77.5951L203.388 77.9333L204.155 78.2628L204.923 78.5838L205.69 78.896L206.458 79.1994L207.225 79.4939L207.993 79.7795L208.76 80.0561L209.528 80.3236L210.295 80.582L211.063 80.8311L211.83 81.071L212.598 81.3015L213.365 81.5227L214.133 81.7344L214.9 81.9366L215.668 82.1293L216.435 82.3123L217.203 82.4858L217.97 82.6495L218.738 82.8036L219.505 82.9479L220.273 83.0823L221.04 83.207L221.808 83.3218L222.575 83.4267L223.343 83.5217L224.11 83.6067L224.878 83.6818L225.645 83.747L226.413 83.8021L227.18 83.8472L227.948 83.8823L228.715 83.9074L229.483 83.9225L230.25 83.9275L231.018 83.9225L231.785 83.9074L232.553 83.8823L233.32 83.8472L234.088 83.8021L234.855 83.747L235.623 83.6818L236.39 83.6067L237.158 83.5217L237.925 83.4267L238.693 83.3218L239.46 83.207L240.228 83.0823L240.995 82.9479L241.763 82.8036L242.53 82.6495L243.298 82.4858L244.065 82.3123L244.833 82.1293L245.6 81.9366L246.368 81.7344L247.135 81.5227L247.903 81.3015L248.67 81.071L249.438 80.8311L250.205 80.582L250.973 80.3236L251.74 80.0561L252.508 79.7795L253.275 79.4939L254.043 79.1994L254.81 78.896L255.578 78.5838L256.345 78.2628L257.113 77.9333L257.88 77.5951L258.648 77.2486L259.415 76.8936L260.183 76.5303L260.95 76.1588L261.718 75.7792L262.485 75.3915L263.253 74.996L264.02 74.5926L264.788 74.1814L265.555 73.7626L266.323 73.3363L267.09 72.9026L267.858 72.4616L268.625 72.0133L269.393 71.558L270.16 71.0957L270.928 70.6265L271.695 70.1505L272.463 69.6679L273.23 69.1788L273.998 68.6833L274.765 68.1815L275.533 67.6736L276.3 67.1596L277.068 66.6398L277.835 66.1141L278.603 65.5829L279.37 65.0461L280.138 64.5039L280.905 63.9565L281.673 63.404L282.44 62.8465L283.208 62.2842L283.975 61.7172L284.743 61.1456L285.51 60.5696L286.278 59.9894L287.045 59.405L287.813 58.8166L288.58 58.2244L289.348 57.6285L290.115 57.029L290.883 56.4262L291.65 55.82L292.418 55.2108L293.185 54.5987L293.953 53.9837L294.72 53.3661L295.488 52.746L296.255 52.1235L297.023 51.4989L297.79 50.8722L298.558 50.2436L299.325 49.6134L300.093 48.9815L300.86 48.3482L301.628 47.7137L302.395 47.0781L303.163 46.4415L303.93 45.8042L304.698 45.1662L305.465 44.5277L306.233 43.8889" stroke="white" stroke-width="3.8375" stroke-miterlimit="10" stroke-linecap="round" stroke-linejoin="round"/>
</svg>
